<?xml version="1.0" standalone="no"?>
<!DOCTYPE svg PUBLIC "-//W3C//DTD SVG 20010904//EN"
 "http://www.w3.org/TR/2001/REC-SVG-20010904/DTD/svg10.dtd">
<svg version="1.0" xmlns="http://www.w3.org/2000/svg"
 width="474.000000pt" height="474.000000pt" viewBox="0 0 474.000000 474.000000"
 preserveAspectRatio="xMidYMid meet">

<g transform="translate(0.000000,474.000000) scale(0.100000,-0.100000)"
fill="#000000" stroke="none">
<path d="M0 2370 l0 -2370 2370 0 2370 0 0 2370 0 2370 -2370 0 -2370 0 0
-2370z m2793 797 c27 -72 100 -270 163 -439 63 -169 114 -311 114 -315 0 -26
-821 -456 -838 -439 -3 3 1 6 8 6 9 0 7 5 -6 16 -10 8 -14 13 -7 10 6 -4 14
-2 17 3 4 5 -7 7 -24 5 -19 -3 -30 -1 -30 7 0 6 -8 9 -18 7 -10 -3 -27 1 -37
8 -18 13 -18 16 5 65 30 64 65 111 74 101 10 -9 36 27 35 47 0 9 -4 6 -10 -8
-5 -13 -12 -22 -15 -19 -10 10 40 108 55 109 10 0 12 2 4 6 -10 3 -9 12 4 36
8 18 21 35 27 39 6 4 8 8 4 8 -4 0 18 51 50 112 31 62 69 142 83 178 31 77
282 588 289 589 3 1 27 -59 53 -132z m728 -478 c84 -28 103 -93 50 -165 -44
-60 -146 -153 -261 -238 -58 -42 -115 -85 -128 -94 l-22 -17 50 -135 c145
-386 172 -461 167 -466 -3 -3 -57 5 -120 17 l-116 23 -26 70 c-91 247 -139
366 -148 366 -5 0 -44 -22 -86 -49 -95 -61 -384 -222 -517 -289 -72 -36 -104
-48 -115 -41 -12 8 -12 9 1 7 23 -3 100 40 100 57 0 8 5 15 12 15 6 0 9 3 5 6
-3 3 -15 3 -27 -1 -17 -5 -19 -10 -9 -21 7 -8 7 -14 1 -14 -5 0 -16 7 -23 17
-11 13 -11 17 -1 20 19 7 14 29 -10 42 -22 11 -21 11 7 6 28 -5 29 -4 11 10
-18 14 -18 15 -1 21 9 4 70 36 134 72 64 35 179 98 256 139 297 159 520 297
647 400 71 58 128 132 128 168 0 33 -40 63 -105 80 l-60 15 86 -5 c47 -3 101
-10 120 -16z m-1301 -723 c0 -2 -7 -7 -16 -10 -8 -3 -12 -2 -9 4 6 10 25 14
25 6z m-55 -26 c-3 -5 -12 -10 -18 -10 -7 0 -6 4 3 10 19 12 23 12 15 0z"/>
<path d="M2592 2484 c-67 -134 -122 -249 -122 -255 0 -11 205 94 281 145 26
17 55 36 65 42 18 10 17 15 -13 100 -33 92 -77 201 -84 209 -3 2 -60 -106
-127 -241z"/>
<path d="M2271 2284 c0 -11 3 -14 6 -6 3 7 2 16 -1 19 -3 4 -6 -2 -5 -13z"/>
<path d="M2255 2000 c-3 -5 -2 -10 4 -10 5 0 13 5 16 10 3 6 2 10 -4 10 -5 0
-13 -4 -16 -10z"/>
<path d="M2348 1783 c7 -3 16 -2 19 1 4 3 -2 6 -13 5 -11 0 -14 -3 -6 -6z"/>
<path d="M2380 1766 c0 -2 7 -7 16 -10 8 -3 12 -2 9 4 -6 10 -25 14 -25 6z"/>
</g>
</svg>
